<svg width="428" height="431" viewBox="0 0 428 431" fill="none" xmlns="http://www.w3.org/2000/svg">
<g clip-path="url(#clip0_39_57)">
<path d="M189 4C211.11 4 233.22 4 256 4C256 65.05 256 126.1 256 189C264.58 189 273.16 189 282 189C287.106 189.433 291.97 189.9 297 190.688C298.208 190.865 299.416 191.043 300.66 191.227C310.385 192.735 319.633 195.036 329 198C330.586 198.389 330.586 198.389 332.203 198.785C349.251 203.135 364.807 213.645 378 225C378.739 225.577 379.477 226.155 380.238 226.75C391.785 236.006 399.078 248.7 405 262C405.501 263.112 406.003 264.225 406.52 265.371C417.129 291.377 416.816 321.756 411 349C410.34 349 409.68 349 409 349C408.835 350.155 408.67 351.31 408.5 352.5C404.148 371.931 389.285 390.751 372.688 401.312C349.369 414.713 327.712 418.321 301.09 418.23C298.754 418.229 296.418 418.229 294.083 418.229C289.193 418.228 284.304 418.219 279.415 418.206C273.233 418.189 267.052 418.185 260.87 418.186C256.042 418.185 251.214 418.18 246.386 418.173C244.112 418.17 241.838 418.168 239.564 418.167C222.677 418.155 205.892 417.603 189 417C189 374.43 189 331.86 189 288C210.78 288 232.56 288 255 288C255 309.12 255 330.24 255 352C264.158 351.134 264.158 351.134 273.5 350.25C275.39 350.078 277.281 349.905 279.229 349.728C297.131 348.864 297.131 348.864 312.373 341.552C314.124 339.034 314.124 339.034 315 336C315.66 336 316.32 336 317 336C317.03 320.826 316.449 306.385 305.145 294.859C293.229 284.528 279.654 277.63 263.988 275.328C262.708 275.14 262.708 275.14 261.402 274.948C251.438 273.616 241.485 273.549 231.447 273.609C228.266 273.625 225.087 273.609 221.906 273.59C185.956 273.553 151.322 281.932 117.312 293.125C105.766 296.914 93.8842 299.504 82 302C81.0592 302.199 80.1185 302.397 79.1492 302.602C62.7317 305.849 42.5781 306.282 27.875 297.188C22.6325 293.218 17.8014 288.485 16 282C16 281.01 16 280.02 16 279C15.34 279 14.68 279 14 279C14 188.58 14 98.16 14 5C36.44 5 58.88 5 82 5C82 75.62 82 146.24 82 219C87.4945 217.168 92.4226 215.466 97.6211 213.125C104.958 209.94 112.422 207.366 120.062 205C120.746 204.787 121.429 204.574 122.133 204.354C143.796 197.642 165.476 194.072 188 191C188.495 98.435 188.495 98.435 189 4Z" fill="#063152" stroke="#063152" stroke-width="10"/>
<path d="M363 294C367.828 298.442 370.21 306.044 370.496 312.41C370.497 314.294 370.477 316.179 370.437 318.063C370.444 319.004 370.451 319.946 370.459 320.916C370.392 328.251 369.133 333.8 365 340C361.875 340.188 361.875 340.188 359 340C359.021 339.275 359.042 338.551 359.063 337.804C359.148 334.453 359.199 331.102 359.25 327.75C359.283 326.611 359.317 325.471 359.351 324.297C359.433 317.115 358.546 311.409 355.866 304.728C354.878 301.618 354.637 299.242 355 296C358.221 293.852 359.259 293.439 363 294Z" fill="#F0EFED"/>
<path d="M298.029 240.877C304.686 241.517 310.044 243.331 316.062 246.188C316.896 246.563 317.729 246.937 318.588 247.323C324.447 250.027 329.732 253.281 335 257.001C334.25 261.751 334.25 261.751 332 264.001C327.146 263.81 324.02 262.519 319.889 260.079C316.871 258.356 313.723 256.941 310.562 255.501C309.249 254.889 307.935 254.277 306.621 253.665C304.52 252.699 302.411 251.748 300.285 250.837C295.257 248.6 295.257 248.6 293.875 245.376C294.039 242.269 294.83 241.072 298.029 240.877Z" fill="#EDEDEC"/>
<path d="M215.168 232.832C216.482 232.827 216.482 232.827 217.823 232.822C219.667 232.817 221.512 232.815 223.357 232.815C226.188 232.813 229.019 232.795 231.85 232.776C233.643 232.773 235.437 232.771 237.23 232.77C238.504 232.759 238.504 232.759 239.803 232.748C245.771 232.771 245.771 232.771 248 235C247.625 237.625 247.625 237.625 247 240C242.842 240.146 238.683 240.288 234.524 240.428C233.117 240.475 231.709 240.524 230.301 240.573C209.078 241.316 209.078 241.316 202 241C201 240 201 240 200.938 236.938C200.958 235.968 200.979 234.999 201 234C205.723 232.8 210.329 232.839 215.168 232.832Z" fill="#EFF0EF"/>
<path d="M342.73 373.191C345 374 345 374 346 375C346.156 378.897 345.985 380.924 343.312 383.844C336.269 389.579 328.276 394.448 319 394C319.352 391.202 319.85 390.141 321.934 388.176C322.76 387.561 323.586 386.946 324.438 386.312C329.189 382.705 333.445 378.792 337.676 374.59C340 373 340 373 342.73 373.191Z" fill="#EFEEED"/>
<path d="M320 260C322.972 261.125 325.334 262.223 328 264C329.655 264.385 331.322 264.728 333 265C332.34 265.66 331.68 266.32 331 267C326.515 266.751 323.503 264.688 320 262C320 261.34 320 260.68 320 260Z" fill="#0C2246"/>
<path d="M162 241.205C163 242.205 163 242.205 163.188 244.642C163 247.205 163 247.205 161 249.205C159.02 249.853 157.014 250.423 155 250.955C149.066 252.589 143.215 254.385 137.375 256.33C136.605 256.583 135.836 256.837 135.043 257.098C132.132 258.073 129.361 259.022 126.617 260.408C125 261.205 125 261.205 122.75 260.83C121.884 260.52 121.884 260.52 121 260.205C120.67 258.885 120.34 257.565 120 256.205C125.638 252.335 131.206 249.814 137.625 247.474C140.905 246.24 144.059 244.837 147.25 243.392C152.483 241.175 156.355 240.649 162 241.205Z" fill="#EAEBEB"/>
</g>
<defs>
<clipPath id="clip0_39_57">
<rect width="428" height="431" fill="white"/>
</clipPath>
</defs>
</svg>
